<?xml version="1.0" encoding="utf-8"?>
<!-- Generator: Adobe Illustrator 16.0.2, SVG Export Plug-In . SVG Version: 6.00 Build 0)  -->
<!DOCTYPE svg PUBLIC "-//W3C//DTD SVG 1.1//EN" "http://www.w3.org/Graphics/SVG/1.1/DTD/svg11.dtd">
<svg version="1.1" id="Layer_1" xmlns="http://www.w3.org/2000/svg" xmlns:xlink="http://www.w3.org/1999/xlink" x="0px" y="0px"
	 width="720px" height="720px" viewBox="0 0 720 720" enable-background="new 0 0 720 720" xml:space="preserve">
<g>
	<path fill="#CB272A" d="M525.722,467.632c-32.962,50.51-89.968,83.966-154.65,83.966c-66.423,0-124.755-35.28-157.261-88.081
		c-0.472-0.529-0.928-1.076-1.35-1.66l-0.29-0.397l-0.267-0.413c-1.11-1.713-2.232-3.622-3.094-5.775
		c-4.026,3.502-8.432,6.545-13.207,9.119l-0.154,0.082c-0.667,0.352-1.333,0.689-2.001,1.017
		c9.087,16.342,20.499,31.522,34.084,45.108c38.342,38.339,89.319,59.454,143.541,59.454c54.222,0,105.199-21.115,143.539-59.456
		c12.191-12.189,22.632-25.661,31.214-40.104c-5.581-0.135-10.948-1.765-15.638-4.78
		C528.713,466.443,527.224,467.083,525.722,467.632z"/>
	<path fill="#CB272A" d="M187.223,351.167c4.9-57.18,35.987-106.993,81.175-137.37c-1.703-0.904-3.284-1.746-4.415-2.38
		c-1.182-0.664-2.666-1.414-4.237-2.208c-1.242-0.626-2.498-1.263-3.722-1.908c-1.48-0.78-3.87-1.991-6.184-3.104
		c-7.821,5.847-15.278,12.292-22.308,19.321c-37.17,37.169-58.148,86.216-59.396,138.582c4.955-4.859,11.283-8.554,18.836-10.861
		C187.056,351.213,187.14,351.191,187.223,351.167z"/>
	<path fill="#CB272A" d="M469.164,196.259c4.981,5.653,7.726,9.062,10.88,13.512c2.984,4.209,4.751,7.154,6.967,11.116
		c0.866,1.549,1.757,3.18,2.649,4.888c38.877,32.689,64.121,81.097,65.847,135.338c3.556-3.252,7.321-4.901,10.428-5.72l0.2-0.052
		c1.628-0.409,3.31-0.617,5.001-0.617c0.878,0,1.727,0.07,2.561,0.173c-2.914-49.649-23.625-95.921-59.086-131.382
		c-17.416-17.417-37.445-31.265-59.198-41.208C461.844,187.96,464.629,191.114,469.164,196.259z"/>
	<path fill="#CB272A" d="M249.668,165.453l9.189-0.835c5.2-0.25,9.774-0.125,15.037,0.333c6.089,0.532,12.89,1.145,20.049,2.338
		c7.268,1.211,10.75,2.068,17.861,3.823c7.702,1.901,10.333,2.527,17.092,4.748c6.494,2.134,10.033,3.543,15.494,5.891
		c5.938,2.555,10.831,4.795,17.136,8.136c7.116,3.772,11.738,6.433,18.127,10.737c6.266,4.592,11.283,9.125,17.284,14.911
		c4.895,4.718,10.472,12.174,12.533,14.959c1.975,2.667,6.021,8.18,8.114,11.912c2.795,4.987,4.107,7.773,5.863,12.621
		c1.565,4.323,3.197,9.085,4.448,18.608c1.182,8.98,4.054,22.436,7.302,28.151c3.659,6.44,6.188,8.125,10.503,10.283
		c3.562,1.779,7.304,2.831,11.222,2.873c3.308,0.034,6.774-0.816,8.972-1.78c2.493-1.093,4.591-2.559,6.171-4.005
		c1.945-1.777,4.964-5.307,6.258-8.151c1.406-3.093,5.281-9.728,5.325-26.374c0.017-6.248-0.617-13.554-3.087-22.455
		c-2.29-8.242-5.799-15.384-9.657-22.285c-1.957-3.499-3.361-5.848-5.917-9.453c-2.695-3.803-5.074-6.766-9.669-11.98
		c-4.462-5.061-6.686-7.571-12.456-12.616c-6.195-5.415-9.328-7.42-14.74-11.207c-4.488-3.145-9.078-5.851-14.047-8.751
		c-4.601-2.687-9.895-5.502-12.619-6.758c-2.442-1.128-7.896-3.509-10.94-4.678c-2.364-0.909-5.851-2.214-8.046-2.866
		c-3.012-0.895-6.953-2.231-8.631-2.698c-2.359-0.662-4.337-1.161-7.435-2.042c-2.929-0.833-5.172-1.375-10.686-2.502
		c-5.49-1.122-10.024-1.629-15.977-2.38c-4.827-0.609-10.353-1.232-16.234-1.686c-4.13-0.319-8.012-0.196-11.579-0.269
		c-2.449-0.05-7.713-0.176-13.134,0.234c-4.158,0.313-11.559,1.155-15.605,2.014c-3.202,0.678-6.792,1.522-9.631,2.17
		c-1.368,0.313-6.057,1.42-9.357,2.506c-2.715,1.045-6.036,2.172-8.395,3.25C253.253,161.349,247.83,164.617,249.668,165.453z"/>
	<path fill="#CB272A" d="M240.456,182.83l3.339,1.11c2.538,0.919,5.725,2.106,8.538,3.418c2.867,1.337,6.312,3.062,8.606,4.271
		c2.826,1.491,5.83,2.915,8.376,4.344c2.354,1.321,7.939,4.195,10.451,5.633c2.625,1.5,7.813,4.561,11.56,6.955
		c5.241,3.349,8.938,5.731,13.788,9.086c4.447,3.078,7.268,5.347,10.091,7.711c3.011,2.524,6.176,5.303,8.797,8.319
		c2.331,2.682,4.436,5.256,6.157,8.279c2.189,3.844,3.811,7.344,4.568,10.212c1.286,4.87,1.974,11.37,1.348,15.494
		c-0.68,4.487-1.811,7.5-3.812,10.5c-2.193,3.289-4.625,5.749-5.889,7.153c-1.757,1.954-5.003,4.851-6.86,7.221
		c-5,6.373-6.5,10.249-6.966,15.964c-0.835,10.256,2.682,16.356,7.455,22.595c4.636,6.061,10.778,10.584,15.603,13.217
		c4.125,2.251,7.856,4.046,11.063,5.251c4.5,1.686,9.419,3.24,14.155,4.31c5.812,1.314,10.124,1.782,16.873,2.063
		c4.423,0.185,12.373-0.186,16.959-0.691c2.993-0.328,6.778-0.656,7.698-0.823c1.098-0.2,5.262-0.834,7.601-1.42
		c2.802-0.533,11.802-2.346,15.206-6.788c-8.469,0.629-16.155-1.807-20.652-3.495c-4.486-1.681-8.742-4.802-11.25-7.312
		c-3.003-3.002-3.995-5.05-4.938-6.903c-0.688-1.346-1.387-3.944-1.563-6.221c-0.122-1.624,0.26-6.08,0.376-7.249
		c0.075-0.738,0.436-2.067,1.019-4.658c0.229-1.007,0.894-3.326,1.339-4.927c0.417-1.504,2.145-5.913,3.173-9.356
		c1.291-4.319,2.414-10.154,2.673-15.538c0.298-6.139-0.703-15.639-1.594-20.141c-1.003-5.07-3.689-12.774-4.92-15.112
		c-1.188-2.258-3.699-6.435-5.58-9.169c-1.607-2.339-3.854-5.089-5.615-7.205c-1.498-1.803-5.774-6.111-7.685-8.02
		c-3.342-3.341-7.686-6.767-11.694-9.857c-4.861-3.256-8.438-5.702-14.037-8.542c-4.511-2.506-7.321-3.963-17.164-7.907
		c-7.136-2.857-13.368-4.582-17.274-5.606c-5.095-1.336-9.823-2.433-13.787-3.342c-4.282-0.983-9.353-1.786-12.111-2.275
		c-2.92-0.519-8.885-1.307-12.176-1.734c-3.843-0.502-8.521-0.834-11.343-1.003c-3.692-0.22-5.085-0.344-8.456-0.313
		C245.761,180.383,238.2,180.994,240.456,182.83z"/>
	<path fill="#CB272A" d="M210.659,422.976l0.301-0.603c3.516,0,6.631-0.604,9.343-1.809c2.311-1.104,3.467-2.209,3.467-3.316
		c0-1.305-1.106-2.158-3.316-2.562c-1.709-0.2-3.367-0.351-4.973-0.452c5.426-10.649,8.892-17.13,10.399-19.442
		c2.311,6.531,3.466,16.48,3.466,29.842c0,2.11-0.15,4.724-0.452,7.837c-0.301,3.115-0.453,5.177-0.453,6.18
		c-1.808,4.119-2.713,7.083-2.713,8.892c0,0.603,0.552,1.759,1.659,3.467c0.803,1.104,2.864,1.707,6.179,1.808
		c3.214,0,5.625-0.354,7.233-1.056c5.728-2.41,9.896-5.124,12.51-8.139c1.206-1.305,4.017-6.48,8.439-15.523
		c6.428-13.362,11.252-23.059,14.469-29.088c13.361-25.32,21.602-40.242,24.717-44.762c2.411-3.517,3.617-5.577,3.617-6.179
		c0-0.201,0.099-0.627,0.302-1.281c0.2-0.652,0.301-1.23,0.301-1.734c0-1.406-0.855-2.962-2.562-4.672
		c-2.211-2.209-6.582-3.316-13.111-3.316c-8.542,0-17.584,2.21-27.129,6.631c-15.172,7.135-28.484,17.937-39.939,32.403
		c-7.034-5.426-14.871-8.14-23.511-8.14c-2.411,0-4.573,0.302-6.48,0.904c-12.259,3.719-18.387,12.26-18.387,25.621
		c0,9.346,6.58,17.133,19.743,23.362c-7.034,9.646-12.659,16.227-16.879,19.743c-3.617,3.015-7.788,4.522-12.509,4.522
		c-3.618,0-6.48-0.956-8.591-2.863c-1.206-1.105-1.86-2.662-1.959-4.674c-0.102-1.707,0.151-3.165,0.753-4.37
		c3.316,0,6.153-1.255,8.516-3.768c2.359-2.51,3.542-5.477,3.542-8.893c0-3.315-1.182-6.104-3.542-8.364
		c-2.362-2.26-5.199-3.341-8.516-3.24c-5.025,0.102-9.345,1.76-12.96,4.975c-4.424,4.119-6.633,10.148-6.633,18.085
		c0,7.636,3.467,13.815,10.399,18.537c4.921,3.315,10.449,5.425,16.579,6.33c0.904,0.099,1.908,0.15,3.014,0.15
		c7.133,0,14.417-1.959,21.854-5.878C197.094,442.621,205.031,434.23,210.659,422.976z M249.693,364.046
		c8.139-9.242,16.526-14.97,25.169-17.182c2.01-0.501,3.618-0.753,4.824-0.753c2.208,0,3.315,0.753,3.315,2.26
		c0,1.409-0.956,3.368-2.863,5.878c-4.823,6.329-9.948,13.665-15.374,22.004c-9.546,14.47-18.288,28.838-26.224,43.105
		c-0.904-11.757-3.466-22.405-7.686-31.952C236.077,380.074,242.358,372.285,249.693,364.046z M193.025,408.507
		c-1.507-1.003-3.066-2.009-4.672-3.016c-4.021-2.409-6.028-6.68-6.028-12.809c0-4.522,1.606-8.793,4.823-12.812
		c2.509-3.112,6.078-4.674,10.7-4.674c6.731,0,13.362,2.615,19.895,7.838c-8.642,12.962-14.822,22.256-18.537,27.884
		C197.295,410.519,195.234,409.712,193.025,408.507z"/>
	<path fill="#CB272A" d="M583.794,419.359c-0.805-1.004-1.507-1.509-2.11-1.509c-0.3,0-1.055,0.705-2.26,2.11
		c-2.012,2.313-4.673,4.823-7.988,7.537c-3.719,3.014-5.931,4.32-6.633,3.918c-0.703-0.4-1.054-1.456-1.054-3.165
		c0-2.611,1.004-5.776,3.013-9.497c5.326-10.045,9.294-17.632,11.908-22.757c2.31-4.421,3.465-7.585,3.465-9.494
		c0-2.713-1.343-5.524-4.033-8.441c-3.387-3.617-5.878-5.223-7.47-4.822c-2.292,0.603-4.184,2.614-5.678,6.029
		c0,0.101-1.008,2.161-3.022,6.179c-3.324-1.908-7.754-2.863-13.291-2.863c-3.121,0-5.993,0.402-8.611,1.206
		c-5.84,1.709-10.976,4.572-15.407,8.591c-2.415,2.313-5.184,5.678-8.307,10.098c-5.138,6.029-8.963,10.099-11.48,12.208
		c-1.61,1.507-3.299,3.066-5.06,4.674c-1.763,1.607-2.644,2.712-2.644,3.313c0,1.506,0.103,2.657,0.303,3.479
		c-4.574,3.505-7.764,5.265-9.563,5.265c-0.704,0-1.055-0.452-1.055-1.356c0-2.412,3.314-9.947,9.947-22.607
		c4.721-9.043,7.083-14.769,7.083-17.182c0-0.903-0.201-1.658-0.602-2.26c-2.514-3.414-5.125-5.124-7.838-5.124
		c-1.71,0-3.718,0.704-6.028,2.109c-2.313,1.408-4.623,2.814-6.934,4.22c-8.24,6.431-14.822,11.856-19.743,16.277
		c4.117-7.635,6.179-12.71,6.179-15.223c0-0.903-0.203-1.658-0.604-2.26c-2.512-3.414-5.124-5.124-7.836-5.124
		c-1.71,0-3.719,0.704-6.028,2.109c-2.313,1.408-4.624,2.814-6.934,4.22c-3.315,2.011-8.541,6.281-15.675,12.811
		c-3.014,2.714-6.28,5.779-9.796,9.194c3.214-4.723,5.072-7.989,5.575-9.797c0.905-3.113,0.905-6.632,0-10.551
		c-0.401-1.809-1.53-3.667-3.389-5.577c-1.86-1.907-3.693-3.063-5.502-3.466c-2.714-0.603-7.738,4.822-15.072,16.276
		c-7.836,10.05-14.419,18.237-19.743,24.566c-0.604,0.806-0.904,1.56-0.904,2.262c0,0.109,0.014,0.205,0.021,0.306
		c-0.468,0.173-0.946,0.329-1.446,0.445c0-2.101-0.603-3.502-1.807-4.205c5.023-9.914,7.535-18.224,7.535-24.934
		c0-2.002-0.251-3.756-0.753-5.259c-2.313-6.91-6.883-10.363-13.715-10.363c-3.617,0-7.335,0.9-11.152,2.703
		c-6.835,3.105-14.671,9.415-23.511,18.929c-5.728,6.01-11.054,12.119-15.976,18.326c-0.804,0.902-1.206,1.854-1.206,2.854
		c0,1.183,0.359,2.007,1.06,2.491c-0.886,0.842-1.718,1.622-2.482,2.322c-1.307,1.709-2.814,2.562-4.521,2.562
		c-1.206-0.702-1.206-2.712,0-6.028c4.119-9.243,7.837-17.382,11.153-24.416c1.003-1.908,2.009-3.894,3.015-5.953
		c1.002-2.059,1.506-3.942,1.506-5.652c0-0.803-0.101-1.605-0.301-2.411c-0.504-2.311-2.11-3.467-4.823-3.467
		c-1.809,0-4.924,0.754-9.345,2.261c-5.226,1.71-9.144,1.807-11.756,0.301c1.207-2.51,1.809-4.822,1.809-6.934
		c0-2.109-0.628-3.665-1.884-4.672c-1.258-1.004-2.789-1.508-4.598-1.508c-4.822,0-8.491,2.412-11.001,7.234
		c-1.507,3.015-2.261,5.679-2.261,7.989c0,2.813,1.153,5.175,3.466,7.083c-2.916,4.924-6.432,9.999-10.551,15.223
		c-2.412,3.015-5.779,6.933-10.098,11.755c-0.803,0.704-1.207,1.507-1.207,2.411s0.402,1.559,1.207,1.959
		c1.808,1.207,3.565,0.957,5.274-0.752c4.621-4.522,12.359-13.867,23.21-28.034c4.319,0,6.481,1.258,6.481,3.769
		c0,2.612-1.86,6.23-5.576,10.851c-9.547,11.958-14.672,21.1-15.373,27.43c-0.302,2.916,0.678,5.727,2.939,8.44
		c2.26,2.713,5.298,4.069,9.118,4.069c2.611,0,5.324-0.701,8.139-2.11c7.139-3.463,14.154-8.6,21.045-15.396
		c0.153,5.209,1.639,9.395,4.491,12.533c3.015,3.314,7.084,4.973,12.208,4.973c10.852,0,20.697-5.827,29.541-17.483
		c1.507,0.806,3.364,1.107,5.576,0.904c6.73-0.501,12.66-4.168,17.784-11.002c1.606-1.809,2.412-3.265,2.412-4.37
		c0-0.765-0.473-1.414-1.405-1.946c3.784-4.184,7.239-8.058,10.365-11.619c-7.335,14.27-11.907,23.264-13.715,26.978
		c-0.102,0.302-1.409,2.514-3.919,6.634c-1.608,2.612-2.411,4.773-2.411,6.48c0,3.718,1.809,5.576,5.426,5.576
		c2.713,0,5.878-1.282,9.494-3.844c3.618-2.562,6.633-5.55,9.044-8.967c2.412-3.414,6.782-8.791,13.111-16.126
		c5.524-6.429,9.244-10.6,11.152-12.511c2.312-2.31,4.169-3.466,5.577-3.466c0.603,0,0.904,0.354,0.904,1.055
		c0,0.505-0.15,1.157-0.451,1.959c-4.624,8.44-8.945,16.18-12.963,23.21c-0.203,0.403-1.507,2.614-3.918,6.634
		c-1.609,2.612-2.411,4.773-2.411,6.48c0,3.718,1.808,5.576,5.426,5.576c2.714,0,5.876-1.282,9.494-3.844s6.633-5.55,9.045-8.968
		c2.41-3.413,6.781-8.79,13.11-16.125c5.524-6.429,9.242-10.6,11.152-12.511c2.31-2.31,4.22-3.466,5.727-3.466
		c0.604,0,0.904,0.302,0.904,0.904c0,0.504-0.203,1.205-0.603,2.109c-2.713,5.227-5.426,10.452-8.14,15.676
		c-4.321,9.042-6.23,15.222-5.726,18.536c0.702,4.523,3.967,6.783,9.796,6.783c2.713,0,5.324-0.527,7.837-1.583
		c2.51-1.056,7.132-4.496,13.865-10.324c3.241-2.764,5.959-5.172,8.161-7.234c-0.772,2.423-1.161,4.785-1.161,7.085
		c0,3.617,1.207,6.582,3.617,8.892c2.412,2.313,5.476,3.468,9.194,3.468c3.715,0,7.435-1.056,11.152-3.167
		c3.715-2.109,8.387-5.523,14.017-10.247c-0.505,1.807-0.754,3.466-0.754,4.974c0,3.014,1.03,5.251,3.09,6.705
		c2.059,1.458,4.346,2.187,6.857,2.187c3.215,0,6.53-1.055,9.948-3.166c1.907-1.205,5.599-4.145,11.076-8.816
		c5.477-4.672,9.269-8.162,11.38-10.476c1.406-1.506,2.763-2.938,4.069-4.293c1.305-1.357,1.959-2.487,1.959-3.392
		C585,421.219,584.598,420.363,583.794,419.359z M370.851,414.083c-5.225-0.903-8.491,0.302-9.797,3.618
		c-0.504,1.206-0.752,2.513-0.752,3.918c0,2.412,0.652,4.775,1.959,7.084c-2.513,5.728-5.375,8.592-8.59,8.592
		c-0.704,0-1.409-0.151-2.11-0.453c-2.011-0.903-3.014-2.661-3.014-5.275c0-3.715,2.611-10.297,7.837-19.743
		c6.832-12.558,12.257-18.839,16.277-18.839c2.714,0,4.07,1.408,4.07,4.22C376.729,400.922,374.77,406.548,370.851,414.083z
		 M546.567,416.345c-2.109,3.115-4.672,6.281-7.686,9.495c-4.019,4.12-7.083,6.179-9.193,6.179c-1.808,0-2.712-1.104-2.712-3.315
		c0-3.315,2.862-8.99,8.59-17.031c7.435-10.348,12.51-15.523,15.222-15.523c2.01,0,3.015,1.205,3.015,3.617
		C553.802,403.483,551.392,409.011,546.567,416.345z"/>
	<g>
		<path fill="#CB272A" d="M298.371,481.069l1.772,6.912l-2.762,0.783c-0.914-1.649-1.951-2.856-3.111-3.622
			s-2.394-1.148-3.701-1.148c-0.846,0-1.512,0.172-1.999,0.518c-0.486,0.344-0.729,0.729-0.729,1.153
			c0,0.482,0.221,0.93,0.665,1.346c0.433,0.413,1.23,0.783,2.393,1.108l3.958,1.152c2.196,0.631,3.762,1.469,4.697,2.513
			c0.926,1.055,1.388,2.282,1.388,3.681c0,1.783-0.709,3.29-2.126,4.522c-1.585,1.359-3.554,2.04-5.908,2.04
			c-1.093,0-2.097-0.141-3.013-0.421c-0.916-0.28-1.871-0.751-2.865-1.41l-0.649,1.477h-2.201l-1.462-7.99l2.762-0.664
			c0.649,1.624,1.662,2.98,3.035,4.068c1.373,1.088,2.883,1.631,4.527,1.631c0.739,0,1.351-0.092,1.838-0.28
			c0.487-0.187,0.854-0.447,1.101-0.782c0.246-0.334,0.369-0.679,0.369-1.032c0-0.591-0.286-1.099-0.857-1.522
			c-0.58-0.424-1.594-0.842-3.042-1.255l-3.444-1.002c-0.521-0.148-1.228-0.427-2.118-0.835s-1.575-0.834-2.052-1.278
			c-0.477-0.443-0.873-1.013-1.188-1.706c-0.315-0.694-0.473-1.425-0.473-2.193c0-1.094,0.302-2.101,0.908-3.021
			c0.606-0.922,1.517-1.668,2.732-2.238c1.216-0.572,2.563-0.857,4.04-0.857c1.782,0,3.392,0.463,4.829,1.388l0.577-1.033H298.371
			L298.371,481.069z"/>
		<path fill="#CB272A" d="M301.928,481.069h10.059v2.851h-0.916c-0.532,0-0.884,0.047-1.056,0.141
			c-0.172,0.093-0.3,0.241-0.384,0.442c-0.083,0.202-0.125,0.588-0.125,1.16v11.401c0,0.62,0.035,1.019,0.104,1.196
			c0.069,0.177,0.188,0.305,0.355,0.384c0.206,0.119,0.516,0.177,0.93,0.177h1.093v2.852h-10.059v-2.852h0.818
			c0.584,0,0.965-0.042,1.144-0.124c0.178-0.084,0.309-0.217,0.394-0.4c0.084-0.182,0.126-0.543,0.126-1.085v-11.445
			c0-0.641-0.042-1.062-0.126-1.264c-0.085-0.201-0.226-0.357-0.423-0.465c-0.139-0.079-0.476-0.118-1.01-0.118h-0.922V481.069z"/>
		<path fill="#CB272A" d="M313.416,481.069h8.358l6.041,12.022v-7.354c0-0.631-0.034-1.025-0.103-1.182
			c-0.098-0.236-0.231-0.402-0.399-0.495c-0.168-0.094-0.493-0.141-0.975-0.141h-1.004v-2.851h8.492v2.851h-0.939
			c-0.471,0-0.805,0.054-1.005,0.162c-0.2,0.108-0.34,0.257-0.418,0.443s-0.118,0.591-0.118,1.211v15.936h-4.239l-7.65-15.183
			v10.619c0,0.611,0.037,0.999,0.11,1.168c0.074,0.167,0.206,0.299,0.398,0.398c0.19,0.099,0.521,0.147,0.99,0.147h0.984v2.852
			h-8.522v-2.852h0.881c0.489,0,0.824-0.042,1.004-0.125c0.182-0.084,0.326-0.229,0.434-0.437c0.107-0.207,0.161-0.516,0.161-0.929
			v-11.816c0-0.453-0.048-0.785-0.147-0.997c-0.098-0.212-0.229-0.365-0.397-0.458c-0.167-0.094-0.445-0.141-0.836-0.141h-1.102
			L313.416,481.069L313.416,481.069z"/>
		<path fill="#CB272A" d="M350.884,481.069h2.096l2.021,7.399l-2.747,0.797c-0.916-1.762-1.777-3.013-2.584-3.751
			c-1.123-1.015-2.338-1.521-3.648-1.521c-0.955,0-1.848,0.266-2.68,0.798c-0.832,0.531-1.491,1.313-1.979,2.348
			s-0.731,2.245-0.731,3.633c0,2.118,0.559,3.939,1.676,5.465c1.117,1.526,2.582,2.29,4.393,2.29c1.152,0,2.259-0.331,3.323-0.989
			c1.329-0.818,2.476-1.915,3.441-3.294l2.29,1.697c-1.486,2.028-2.844,3.441-4.074,4.239c-1.9,1.23-4.014,1.846-6.347,1.846
			c-1.938,0-3.692-0.465-5.261-1.396c-1.57-0.931-2.822-2.232-3.757-3.906c-0.935-1.673-1.402-3.5-1.402-5.479
			c0-1.97,0.456-3.764,1.365-5.384c0.91-1.619,2.15-2.882,3.719-3.788c1.57-0.905,3.319-1.358,5.247-1.358
			c1.958,0,3.675,0.413,5.15,1.241L350.884,481.069z"/>
		<path fill="#CB272A" d="M356.639,481.069h17.205l2.35,6.513l-2.673,0.961c-0.453-1.064-0.982-1.92-1.588-2.57
			c-0.606-0.65-1.276-1.081-2.01-1.293c-0.733-0.211-1.588-0.317-2.563-0.317h-3.145v5.14h1.032c0.778,0,1.303-0.056,1.573-0.17
			c0.271-0.113,0.466-0.29,0.583-0.531c0.118-0.241,0.177-0.721,0.177-1.44v-0.782h2.629v8.729h-2.629v-0.891
			c0-0.604-0.07-1.044-0.213-1.321c-0.143-0.276-0.338-0.466-0.584-0.563c-0.246-0.1-0.792-0.149-1.639-0.149h-0.93v4.738
			c0,0.504,0.023,0.81,0.073,0.918s0.146,0.192,0.288,0.252s0.45,0.089,0.924,0.089h1.729c1.289,0,2.379-0.187,3.266-0.557
			c0.887-0.371,1.677-0.969,2.371-1.796c0.694-0.825,1.229-1.808,1.604-2.946l2.697,0.932l-2.704,7.659h-17.825v-2.851h0.517
			c0.689,0,1.152-0.05,1.388-0.148c0.236-0.098,0.403-0.271,0.502-0.517c0.049-0.147,0.074-0.566,0.074-1.255v-11.225
			c0-0.611-0.042-1.009-0.125-1.196c-0.083-0.188-0.215-0.328-0.392-0.421s-0.527-0.14-1.048-0.14h-0.916V481.069z"/>
		<path fill="#CB272A" d="M399.154,480.715v16.159c0,0.698,0.028,1.116,0.087,1.254c0.089,0.246,0.246,0.421,0.472,0.523
			s0.643,0.155,1.25,0.155h2.076v2.865h-12.718v-2.865h2.098c0.738,0,1.21-0.047,1.419-0.14c0.206-0.094,0.361-0.247,0.465-0.457
			c0.104-0.212,0.155-0.657,0.155-1.335v-11.522h-4.136v-2.865c1.182-0.119,2.088-0.241,2.718-0.37
			c0.945-0.187,1.949-0.441,3.013-0.768c0.591-0.177,1.143-0.389,1.654-0.635H399.154z"/>
		<path fill="#CB272A" d="M408.411,502.026v-2.895c1.888-0.079,3.392-0.259,4.513-0.539c1.12-0.28,2.056-0.667,2.81-1.159
			c0.753-0.492,1.359-1.076,1.821-1.75c0.462-0.676,0.786-1.451,0.973-2.327c-0.866,0.611-1.688,1.041-2.467,1.292
			s-1.615,0.377-2.51,0.377c-1.438,0-2.726-0.298-3.862-0.894c-1.139-0.596-2.002-1.391-2.593-2.391
			c-0.591-0.997-0.887-2.161-0.887-3.488c0-2.193,0.773-3.999,2.319-5.415c1.546-1.417,3.643-2.124,6.291-2.124
			c2.728,0,4.859,0.729,6.396,2.187c1.802,1.702,2.703,4.046,2.703,7.029c0,2.01-0.306,3.723-0.915,5.14
			c-0.61,1.418-1.562,2.672-2.854,3.76c-1.294,1.088-2.813,1.891-4.56,2.406C413.843,501.753,411.451,502.017,408.411,502.026z
			 M414.88,491.658c0.718,0,1.353-0.158,1.905-0.473c0.552-0.315,0.979-0.773,1.284-1.374s0.458-1.285,0.458-2.053
			c0-1.123-0.337-2.038-1.012-2.747c-0.674-0.709-1.523-1.063-2.547-1.063c-1.044,0-1.908,0.354-2.593,1.063
			c-0.684,0.709-1.026,1.64-1.026,2.791c0,1.162,0.332,2.094,0.997,2.799C413.012,491.306,413.855,491.658,414.88,491.658z"/>
		<path fill="#CB272A" d="M438.507,490.226c1.525,0.601,2.703,1.418,3.529,2.452c0.649,0.798,0.975,1.787,0.975,2.969
			c0,1.802-0.709,3.282-2.127,4.445c-1.585,1.289-3.712,1.935-6.38,1.935c-1.782,0-3.323-0.271-4.623-0.813s-2.27-1.238-2.909-2.09
			c-0.64-0.851-0.961-1.73-0.961-2.636c0-0.945,0.353-1.847,1.057-2.703c0.704-0.857,1.804-1.586,3.301-2.187
			c-1.25-0.562-2.188-1.285-2.813-2.171c-0.626-0.887-0.938-1.861-0.938-2.924c0-1.054,0.293-2.009,0.879-2.865
			s1.496-1.558,2.732-2.104c1.235-0.547,2.655-0.82,4.261-0.82c2.028,0,3.765,0.44,5.213,1.321c1.448,0.882,2.172,2.08,2.172,3.597
			c0,0.886-0.246,1.696-0.739,2.43C440.643,488.795,439.768,489.517,438.507,490.226z M433.234,492.973
			c-0.945,0.492-1.642,1.021-2.09,1.589c-0.448,0.566-0.672,1.109-0.672,1.631c0,0.414,0.152,0.825,0.458,1.234
			c0.305,0.408,0.768,0.738,1.388,0.989c0.621,0.251,1.349,0.377,2.187,0.377c0.827,0,1.557-0.116,2.187-0.347
			c0.63-0.231,1.077-0.518,1.344-0.858c0.267-0.34,0.399-0.706,0.399-1.1c0-0.492-0.167-0.901-0.503-1.226
			c-0.482-0.474-1.313-0.945-2.496-1.419L433.234,492.973z M435.701,488.971l0.546-0.605c0.354-0.374,0.591-0.665,0.709-0.872
			c0.178-0.285,0.303-0.549,0.377-0.79s0.11-0.484,0.11-0.73c0-0.532-0.277-1.001-0.834-1.411c-0.557-0.409-1.332-0.611-2.326-0.611
			c-0.955,0-1.697,0.189-2.224,0.568s-0.789,0.819-0.789,1.321c0,0.442,0.157,0.822,0.473,1.138
			c0.423,0.424,1.196,0.866,2.318,1.329L435.701,488.971z"/>
		<path fill="#CB272A" d="M446.613,492.367l0.546-11.298h10.397c0.649,0,1.066-0.052,1.247-0.155
			c0.182-0.104,0.288-0.288,0.318-0.554h1.979v5.14h-10.767l-0.132,2.643c1.201-0.127,2.289-0.192,3.264-0.192
			c2.018,0,3.702,0.296,5.051,0.887c1.35,0.591,2.349,1.383,2.998,2.378s0.976,2.156,0.976,3.485c0,2.313-0.936,4.149-2.808,5.509
			c-1.673,1.211-3.707,1.816-6.1,1.816c-1.594,0-3.032-0.272-4.313-0.82c-1.28-0.546-2.232-1.229-2.857-2.045
			c-0.625-0.817-0.938-1.64-0.938-2.467c0-0.66,0.224-1.214,0.672-1.662c0.448-0.449,0.997-0.673,1.647-0.673
			c0.462,0,0.886,0.129,1.27,0.385s0.719,0.684,1.005,1.284c0.402,0.827,0.777,1.425,1.122,1.795c0.345,0.369,0.748,0.651,1.21,0.85
			c0.463,0.197,0.979,0.295,1.552,0.295c0.758,0,1.438-0.15,2.038-0.449c0.601-0.301,1.054-0.71,1.359-1.227
			c0.304-0.517,0.457-1.109,0.457-1.779c0-1.133-0.478-2.053-1.433-2.762s-2.461-1.063-4.519-1.063
			C450.023,491.688,448.277,491.914,446.613,492.367z"/>
	</g>
</g>
</svg>
