<?xml version="1.0" standalone="no"?>
<!DOCTYPE svg PUBLIC "-//W3C//DTD SVG 20010904//EN"
 "http://www.w3.org/TR/2001/REC-SVG-20010904/DTD/svg10.dtd">
<svg version="1.0" xmlns="http://www.w3.org/2000/svg"
 width="450.000000pt" height="450.000000pt" viewBox="0 0 450.000000 450.000000"
 preserveAspectRatio="xMidYMid meet">

<g transform="translate(0.000000,450.000000) scale(0.100000,-0.100000)"
fill="#000000" stroke="none">
<path d="M1995 3734 c-270 -30 -549 -125 -742 -254 -109 -73 -118 -81 -211
-173 -97 -95 -137 -167 -151 -269 -23 -162 35 -311 172 -447 59 -58 63 -65 62
-107 -1 -63 20 -57 55 19 44 92 41 118 -22 186 -93 100 -135 217 -125 343 7
79 13 92 82 178 98 123 200 211 330 289 153 92 268 135 520 191 86 19 305 33
459 28 103 -3 148 -2 126 4 -37 9 -488 19 -555 12z"/>
<path d="M2206 3424 c-3 -9 -6 -31 -6 -49 0 -47 36 -85 135 -145 46 -28 95
-64 109 -81 30 -35 34 -79 9 -101 -10 -9 -92 -50 -182 -91 -89 -42 -172 -84
-183 -94 -32 -29 -40 -60 -23 -92 19 -38 48 -55 171 -100 94 -35 154 -71 154
-91 0 -4 -87 -10 -192 -13 -122 -4 -221 -12 -268 -22 -81 -18 -190 -53 -203
-65 -15 -13 76 -81 168 -125 180 -88 351 -121 585 -112 118 4 159 9 223 30
l77 25 0 -42 c0 -22 -11 -71 -23 -107 -23 -67 -85 -179 -99 -179 -12 0 -10 52
3 89 9 24 9 39 0 58 -17 37 -34 23 -51 -43 -8 -32 -18 -64 -22 -69 -3 -6 -2
-30 2 -55 8 -40 6 -47 -13 -63 -46 -38 -154 -105 -204 -127 -51 -22 -54 -22
-100 -5 -82 29 -205 31 -300 5 -203 -55 -335 -193 -349 -365 l-5 -70 19 52
c25 71 62 122 120 166 92 70 209 107 337 107 93 0 150 -14 260 -62 44 -19 98
-41 120 -47 22 -7 47 -15 55 -18 10 -3 4 -10 -20 -23 -57 -30 -126 -97 -149
-145 -33 -71 -26 -148 18 -182 20 -16 98 -16 142 -2 63 21 96 54 101 99 2 22
1 39 -2 38 -3 -2 -32 -16 -64 -32 -61 -31 -150 -45 -175 -28 -22 16 -15 61 16
100 67 85 193 136 193 80 l0 -23 20 25 c11 14 23 37 26 51 5 24 12 28 63 34
74 9 111 26 143 63 38 45 43 82 20 135 -18 40 -92 107 -119 107 -4 0 -14 4
-22 9 -11 7 -3 21 37 67 60 67 113 165 137 249 9 33 18 65 20 72 2 7 18 -2 38
-22 19 -19 41 -35 48 -35 10 0 10 3 1 12 -22 22 -14 72 16 100 39 37 65 48
114 48 56 0 88 -22 88 -60 0 -55 -86 -128 -277 -235 -57 -31 -103 -58 -103
-60 0 -6 70 24 188 81 195 96 278 206 227 304 -17 33 -71 65 -126 75 -52 10
-114 -11 -160 -52 l-39 -35 0 57 c0 50 -2 57 -17 52 -10 -2 -57 -16 -105 -30
-186 -55 -428 -71 -668 -42 -130 15 -311 49 -336 63 -24 13 169 78 286 96 61
10 146 16 203 14 l98 -3 -36 -42 c-24 -29 -32 -43 -22 -43 17 0 53 41 62 71 4
13 16 19 38 20 30 1 30 1 7 8 -21 6 -24 12 -22 38 5 50 -13 69 -103 113 -149
70 -140 109 48 205 127 65 162 93 176 142 12 41 -3 69 -59 109 -25 18 -61 47
-82 64 -20 17 -59 37 -88 44 -75 20 -87 35 -72 91 6 24 9 51 6 60 -8 20 -30
19 -38 -1z m525 -1675 c48 -16 96 -55 115 -91 15 -29 15 -32 -3 -57 -29 -38
-105 -62 -177 -56 -59 5 -141 42 -200 89 l-28 24 67 37 c108 61 165 74 226 54z"/>
<path d="M2465 2846 c-105 -54 -107 -72 -16 -133 36 -23 73 -55 83 -70 21 -32
18 -76 -9 -105 -9 -10 -12 -18 -7 -18 13 0 62 64 74 95 16 42 -7 75 -75 112
-33 17 -64 39 -70 47 -12 20 26 61 71 76 19 7 34 18 34 26 0 8 -1 13 -2 13 -2
-1 -39 -20 -83 -43z"/>
<path d="M3571 2770 c-14 -43 -91 -148 -135 -187 -33 -29 -36 -36 -36 -85 1
-29 7 -64 15 -78 14 -24 14 -23 15 30 0 54 27 120 49 120 23 0 124 210 109
226 -3 3 -11 -9 -17 -26z"/>
<path d="M1690 2259 c-14 -5 -40 -31 -58 -57 -45 -66 -148 -166 -199 -192 -53
-27 -104 -24 -118 8 -16 37 -25 25 -25 -34 0 -53 1 -56 33 -69 56 -23 134 5
212 76 37 34 44 37 55 24 7 -8 21 -15 31 -15 20 0 39 -28 39 -59 0 -24 13 -33
34 -25 9 4 16 21 18 47 2 34 7 42 27 47 13 3 31 16 39 28 15 23 15 24 -21 17
-44 -9 -44 -6 -22 119 18 100 14 107 -45 85z m3 -132 l-17 -77 -38 0 -38 0 53
79 c28 43 53 78 54 77 2 -2 -5 -37 -14 -79z"/>
<path d="M1922 2138 c-7 -7 -12 -18 -12 -25 0 -18 -10 -16 -25 3 -10 14 -15
14 -32 4 -16 -11 -22 -28 -27 -84 -3 -39 -9 -83 -12 -98 -5 -21 -2 -28 8 -28
30 0 49 27 60 87 10 53 14 61 26 51 19 -16 47 18 31 38 -5 7 -7 24 -3 38 7 29
4 32 -14 14z"/>
<path d="M2036 2130 c-47 -9 -61 -26 -75 -92 -21 -97 -10 -128 48 -128 51 0
88 30 96 78 4 20 13 50 20 67 8 16 10 32 6 35 -4 3 -13 15 -20 28 -12 23 -15
24 -75 12z m24 -146 c-10 -42 -23 -59 -39 -50 -22 14 -6 140 23 175 9 11 12 3
17 -38 4 -28 3 -67 -1 -87z"/>
<path d="M2189 2120 c-10 -6 -15 -18 -12 -32 2 -13 -3 -54 -11 -93 -8 -38 -11
-74 -7 -78 17 -17 42 9 78 80 41 83 53 84 29 2 -21 -71 -20 -89 4 -89 14 0 29
18 54 68 19 37 41 76 50 87 15 19 15 18 8 -15 -10 -51 -9 -135 3 -135 6 0 21
7 33 17 19 12 22 20 14 35 -6 12 -5 39 4 78 18 83 17 85 -11 85 -20 0 -34 -13
-66 -62 -39 -62 -45 -54 -17 21 5 15 5 28 -1 34 -19 19 -47 0 -80 -56 -19 -31
-36 -55 -39 -53 -2 3 3 26 12 52 8 25 13 50 10 55 -7 12 -35 11 -55 -1z"/>
<path d="M2521 2109 c-23 -25 -45 -109 -39 -153 1 -16 11 -34 20 -40 14 -8 23
-5 48 19 35 33 38 45 10 38 -23 -6 -24 2 -9 67 6 25 20 55 31 68 l21 22 -31 0
c-19 0 -39 -8 -51 -21z"/>
<path d="M1166 1883 c-3 -21 -6 -121 -6 -223 0 -338 -35 -715 -75 -830 -13
-38 -13 -42 6 -61 17 -17 29 -19 77 -14 130 12 297 25 452 35 91 6 224 15 295
20 72 5 202 12 290 15 88 3 203 9 255 13 l95 7 -170 6 c-230 7 -1136 3 -1157
-5 -15 -7 -16 34 -21 506 -3 282 -8 525 -12 541 -10 38 -21 34 -29 -10z"/>
<path d="M2967 1508 c-16 -16 -32 -55 -47 -111 -16 -59 -28 -87 -38 -87 -10 0
-12 -6 -7 -22 5 -13 7 -65 6 -115 -2 -81 0 -94 15 -100 12 -5 26 3 46 28 27
32 27 34 8 41 -16 6 -20 16 -20 50 0 52 7 63 41 71 14 4 31 18 37 31 11 24 10
24 -24 19 -18 -3 -34 -2 -34 2 0 4 16 35 35 70 58 103 46 187 -18 123z"/>
<path d="M3407 1513 c-4 -3 -7 -152 -7 -330 0 -280 2 -323 15 -323 13 0 15 43
15 330 0 182 -4 330 -8 330 -5 0 -12 -3 -15 -7z"/>
<path d="M1711 1445 c-58 -66 -74 -181 -35 -257 18 -34 61 -68 88 -68 60 0 62
67 6 139 -65 82 -73 120 -41 184 10 20 18 37 16 37 -2 0 -17 -16 -34 -35z"/>
<path d="M2810 1380 c-6 -10 -13 -39 -16 -64 -7 -45 -54 -112 -62 -87 -9 28
11 105 34 128 29 29 30 33 4 33 -33 0 -68 -21 -79 -49 -19 -45 -30 -124 -21
-147 15 -38 30 -38 71 2 l39 38 0 -37 c0 -41 20 -49 51 -21 14 13 16 20 7 34
-9 14 -9 35 0 84 9 48 10 72 2 86 -13 25 -17 25 -30 0z"/>
<path d="M3106 1390 c-22 -4 -45 -16 -53 -26 -31 -43 -45 -168 -21 -192 18
-18 59 -14 97 9 36 22 37 38 1 19 -28 -15 -50 3 -50 41 0 26 3 29 34 29 41 0
66 28 66 75 0 28 -16 57 -29 54 -4 -1 -24 -5 -45 -9z m24 -41 c0 -29 -18 -59
-36 -59 -15 0 -12 35 8 73 11 22 28 13 28 -14z"/>
<path d="M2568 843 c7 -3 16 -2 19 1 4 3 -2 6 -13 5 -11 0 -14 -3 -6 -6z"/>
</g>
</svg>
