<?xml version="1.0" standalone="no"?>
<!DOCTYPE svg PUBLIC "-//W3C//DTD SVG 20010904//EN"
 "http://www.w3.org/TR/2001/REC-SVG-20010904/DTD/svg10.dtd">
<svg version="1.0" xmlns="http://www.w3.org/2000/svg"
 width="1489.000000pt" height="1600.000000pt" viewBox="0 0 1489.000000 1600.000000"
 preserveAspectRatio="xMidYMid meet">

<g transform="translate(0.000000,1600.000000) scale(0.100000,-0.100000)"
fill="#000000" stroke="none">
<path d="M6690 15012 c-111 -74 -193 -149 -272 -249 -208 -263 -318 -591 -318
-951 0 -289 70 -540 212 -762 48 -74 155 -189 230 -245 101 -76 303 -164 448
-194 30 -7 82 -18 115 -26 33 -8 96 -19 140 -25 44 -6 118 -17 165 -25 47 -7
123 -19 170 -25 154 -20 318 -52 375 -73 55 -20 119 -69 228 -176 120 -117
196 -218 260 -343 64 -127 76 -164 102 -303 33 -181 7 -360 -77 -531 -103
-208 -288 -377 -593 -539 -49 -26 -103 -56 -120 -65 -16 -10 -79 -43 -140 -75
-167 -88 -236 -126 -277 -152 -21 -12 -40 -23 -43 -23 -8 0 -202 -128 -270
-179 -98 -72 -272 -250 -322 -328 -25 -40 -46 -73 -47 -73 -1 0 -86 -5 -191
-10 -517 -27 -808 -46 -915 -59 -41 -6 -122 -15 -180 -21 -58 -7 -141 -18
-185 -26 -44 -7 -123 -21 -175 -29 -168 -28 -192 -33 -370 -74 -236 -54 -558
-147 -660 -189 -14 -6 -114 -43 -222 -82 l-197 -71 -208 98 c-114 54 -237 112
-273 129 -36 17 -67 30 -69 28 -15 -13 151 -191 278 -296 47 -40 91 -77 96
-83 6 -6 33 -29 60 -49 28 -21 66 -52 85 -70 42 -38 205 -158 240 -176 14 -7
27 -16 30 -19 11 -13 120 -82 207 -130 51 -29 95 -55 97 -60 3 -4 -7 -38 -21
-77 -23 -63 -25 -83 -25 -219 0 -120 4 -165 20 -225 52 -192 118 -306 266
-458 137 -141 269 -232 521 -357 269 -133 444 -180 805 -215 63 -6 169 -17
235 -25 66 -7 134 -13 150 -14 17 0 71 -5 120 -11 50 -6 131 -15 180 -21 82
-10 143 -20 305 -50 30 -6 73 -17 95 -24 22 -7 67 -21 100 -30 84 -25 223 -95
292 -149 85 -66 147 -153 178 -249 53 -166 41 -305 -65 -737 -92 -373 -102
-433 -98 -593 3 -130 6 -147 30 -198 16 -34 48 -75 78 -102 l50 -45 -38 9
c-453 112 -888 124 -1387 38 -55 -9 -115 -22 -235 -51 -25 -6 -90 -24 -145
-41 -55 -16 -128 -37 -161 -47 -34 -10 -83 -28 -109 -39 -26 -12 -51 -21 -56
-21 -4 0 -36 -13 -71 -29 -35 -16 -85 -39 -113 -51 -98 -44 -161 -77 -287
-151 -27 -16 -51 -29 -54 -29 -3 0 -20 -11 -38 -25 -18 -14 -36 -25 -40 -25
-3 0 -48 -30 -99 -67 -322 -233 -552 -461 -732 -728 -41 -61 -75 -116 -75
-122 0 -6 -4 -13 -8 -15 -18 -7 -131 -262 -161 -365 -46 -156 -121 -468 -136
-564 -19 -130 -19 -344 1 -474 8 -55 18 -129 21 -165 4 -42 9 -58 13 -45 5 15
10 7 19 -33 7 -29 17 -55 22 -58 5 -3 9 -12 9 -20 0 -29 69 -164 130 -256 132
-199 347 -376 560 -463 36 -15 74 -31 85 -36 45 -19 165 -51 245 -66 108 -20
399 -23 490 -4 165 32 188 40 335 112 55 27 122 67 149 89 26 22 51 40 55 40
3 0 22 -26 41 -58 18 -31 56 -81 84 -110 134 -142 351 -186 443 -90 27 28 28
34 28 121 0 83 -3 97 -28 139 -31 54 -92 102 -231 184 -52 31 -104 66 -115 78
l-20 22 23 74 c83 261 27 638 -124 841 -113 153 -288 243 -635 329 -94 24
-239 69 -290 91 -46 20 -157 94 -206 138 -55 48 -114 133 -145 208 -29 72 -32
200 -6 278 19 56 32 66 204 170 94 56 387 205 404 205 3 0 20 6 37 14 105 47
355 132 422 143 11 2 31 7 45 13 14 5 61 16 104 25 44 9 82 18 85 20 7 4 152
28 301 49 132 19 359 36 476 36 169 -1 444 -28 614 -61 152 -30 423 -107 520
-148 14 -5 57 -22 95 -37 39 -15 117 -47 175 -71 101 -43 138 -59 245 -108 28
-12 82 -37 120 -54 39 -17 77 -35 86 -40 24 -14 322 -135 404 -164 210 -76
407 -129 575 -156 203 -32 284 -41 463 -51 270 -15 553 3 752 47 303 67 523
189 655 364 54 72 73 105 110 194 5 11 16 42 25 68 8 26 24 65 34 85 10 20 27
64 36 97 25 83 25 277 0 360 -55 187 -162 343 -353 518 -72 66 -230 177 -251
177 -6 0 -11 4 -11 9 0 5 -10 13 -22 17 -13 4 -25 10 -28 13 -3 4 -16 12 -30
18 -20 10 -2 12 103 12 123 1 210 -5 412 -30 50 -6 104 -12 120 -13 28 -3 81
-12 215 -37 97 -19 273 -59 350 -80 100 -28 364 -116 409 -136 20 -9 69 -31
109 -49 40 -19 75 -34 77 -34 13 0 221 -120 290 -168 136 -93 186 -136 295
-248 120 -124 158 -190 184 -317 15 -70 15 -84 0 -155 -35 -172 -86 -270 -236
-449 -64 -78 -252 -251 -328 -303 -19 -13 -37 -27 -40 -30 -10 -11 -209 -150
-215 -150 -3 0 -21 -11 -38 -24 -18 -13 -48 -33 -67 -44 -19 -11 -71 -41 -115
-67 -80 -46 -435 -225 -510 -257 -22 -9 -60 -24 -85 -34 -25 -9 -49 -21 -55
-25 -13 -9 -300 -105 -342 -114 -18 -4 -36 -11 -39 -17 -4 -6 1 -8 12 -5 34
11 108 25 184 37 41 6 104 18 140 25 36 7 92 18 125 25 33 6 78 15 100 20 22
5 90 21 150 35 61 14 130 32 155 39 25 8 65 19 90 26 338 96 694 253 938 414
320 211 476 407 568 711 24 80 26 325 2 400 -8 28 -21 70 -29 95 -17 59 -64
162 -103 225 -206 337 -598 619 -1121 807 -184 66 -422 137 -570 169 -22 5
-71 16 -110 24 -102 23 -200 41 -285 55 -41 6 -113 17 -160 25 -128 20 -253
34 -480 50 -113 9 -255 20 -316 25 -60 6 -141 10 -178 10 l-68 0 62 72 c34 40
83 100 110 133 49 62 68 72 185 103 22 6 81 23 130 37 211 62 261 77 285 85
14 4 66 20 115 35 50 14 124 37 165 51 198 64 320 104 341 113 13 6 76 29 139
51 137 50 342 131 414 164 228 107 316 153 492 255 184 107 383 261 539 415
222 221 329 394 382 619 22 96 25 125 20 217 -3 58 -11 123 -17 145 -7 22 -17
58 -23 80 -10 38 -74 178 -100 220 -95 155 -269 326 -437 432 -90 56 -246 130
-349 164 -407 138 -851 93 -1148 -117 -34 -24 -65 -44 -69 -44 -3 0 -3 41 1
92 7 98 -3 398 -15 417 -4 8 -41 -2 -118 -33 -62 -25 -131 -52 -154 -60 -24
-8 -81 -29 -128 -46 -157 -57 -291 -100 -485 -155 -49 -14 -112 -32 -140 -40
-307 -89 -284 -89 -455 -2 -136 70 -294 135 -434 179 -318 101 -775 189 -1186
227 -63 6 -164 16 -225 21 -175 17 -757 39 -1032 40 l-253 0 22 48 c13 26 43
74 68 106 l45 59 295 -1 c360 -3 1106 -36 1475 -67 99 -9 236 -20 305 -26 115
-9 207 -22 380 -50 36 -5 75 -12 88 -15 38 -8 25 5 -30 29 -71 32 -188 65
-303 86 -228 41 -277 49 -480 71 -55 6 -152 18 -215 25 -63 8 -171 19 -240 24
-69 6 -204 17 -300 25 -290 25 -452 36 -537 36 -49 0 -85 4 -89 11 -4 7 -28 9
-70 4 -35 -4 -64 -3 -64 2 1 12 161 86 335 153 11 4 34 13 50 20 17 7 57 21
90 31 33 11 69 23 80 29 11 5 43 16 70 24 51 15 154 51 190 66 11 4 70 29 131
53 349 143 561 274 759 469 132 130 178 194 230 319 50 117 70 305 44 417 -34
152 -35 155 -111 310 -28 56 -54 102 -59 102 -5 0 -9 5 -9 10 0 11 -35 65
-129 200 -147 209 -260 327 -421 435 -27 18 -64 50 -82 71 -105 122 -363 385
-443 453 -110 93 -304 204 -465 264 -89 34 -340 117 -352 117 -17 0 -231 107
-258 128 -14 12 -49 39 -77 61 -94 73 -211 239 -262 369 -77 196 -73 461 11
707 30 86 123 281 179 375 67 111 117 210 106 209 -7 0 -23 -8 -37 -17z m-110
-5539 c0 -5 -9 -45 -20 -91 -11 -46 -20 -91 -20 -101 0 -24 -52 -31 -239 -31
-80 0 -207 -7 -281 -15 -74 -8 -180 -19 -235 -25 -269 -30 -645 -111 -880
-192 -212 -72 -421 -174 -514 -249 -32 -26 -36 -27 -65 -13 -17 7 -74 30 -126
50 -52 20 -106 42 -119 49 -24 12 -23 13 35 34 32 12 73 28 89 35 17 8 111 44
210 82 649 243 924 322 1340 383 39 6 115 17 170 25 103 16 198 26 440 50 171
16 215 18 215 9z m5838 -1159 c214 -43 354 -131 481 -304 82 -111 112 -173
137 -290 18 -83 18 -121 -1 -212 -48 -228 -237 -461 -559 -687 -103 -72 -314
-206 -348 -221 -13 -6 -30 -14 -38 -20 -22 -15 -238 -129 -380 -201 -69 -34
-152 -78 -185 -97 -101 -58 -1087 -553 -1092 -549 -2 3 9 20 25 38 37 44 165
238 232 354 167 287 328 684 411 1015 37 146 49 182 59 178 5 -2 30 -24 57
-49 153 -145 402 -261 589 -274 93 -6 243 -23 282 -31 40 -8 23 11 -42 49 -72
43 -198 135 -269 197 -152 134 -267 348 -267 496 0 61 33 175 70 240 38 67
151 184 224 232 117 79 212 112 406 145 56 9 135 6 208 -9z m-2628 -4108 c207
-28 338 -76 512 -189 162 -105 309 -244 381 -360 59 -95 72 -196 34 -267 -22
-42 -25 -43 -112 -66 -257 -67 -609 -74 -855 -18 -109 25 -205 53 -255 75
-166 72 -277 132 -455 248 -131 85 -364 253 -375 271 -21 35 333 208 530 258
114 30 142 35 232 47 135 17 239 17 363 1z"/>
<path d="M8642 14254 c-19 -8 -39 -28 -49 -48 -15 -32 -15 -37 4 -75 l20 -40
-30 25 c-36 30 -79 28 -127 -6 -82 -59 -112 -149 -91 -277 51 -319 300 -614
531 -630 56 -4 69 -2 93 17 25 20 27 26 27 99 0 55 -7 100 -23 150 -13 39 -22
71 -20 71 1 0 17 -24 33 -54 38 -67 51 -78 87 -74 57 6 81 159 49 310 -45 216
-148 416 -254 492 -74 55 -178 71 -250 40z m34 -210 c33 -24 117 -134 150
-194 10 -19 24 -42 30 -50 6 -8 15 -26 19 -40 4 -14 -19 10 -54 55 -33 44 -92
118 -131 165 -88 108 -91 121 -14 64z"/>
<path d="M10570 11822 c-19 -9 -66 -46 -104 -82 -96 -90 -153 -182 -207 -334
-37 -102 -40 -225 -8 -310 44 -119 114 -122 226 -11 35 35 63 61 63 59 0 -3
-9 -22 -20 -44 -40 -78 -19 -110 58 -90 75 20 142 64 218 142 87 89 154 184
195 274 28 62 31 75 27 153 -3 71 -8 92 -28 123 -43 65 -115 86 -157 46 l-23
-21 0 25 c0 25 -27 56 -67 77 -33 17 -133 13 -173 -7z m225 -174 c-4 -29 -15
-77 -26 -106 -33 -91 -108 -226 -109 -196 0 5 4 14 9 20 5 5 28 64 50 131 46
139 71 203 78 203 3 0 2 -24 -2 -52z"/>
<path d="M3551 8748 c-38 -84 -67 -220 -102 -463 -6 -44 -13 -163 -16 -265 -5
-181 4 -307 38 -525 62 -400 235 -821 461 -1122 79 -105 95 -120 108 -107 7 7
-17 64 -64 159 -110 223 -176 364 -176 379 0 7 -3 16 -7 20 -8 8 -20 40 -72
196 -159 478 -201 945 -141 1585 16 171 16 178 3 182 -7 3 -21 -14 -32 -39z"/>
<path d="M3440 5299 c-341 -14 -550 -55 -890 -175 -101 -35 -240 -104 -330
-162 -304 -197 -599 -554 -675 -816 -16 -54 -15 -86 2 -86 4 0 22 32 38 70 17
38 33 70 38 70 4 0 7 6 7 13 0 7 7 22 15 32 8 11 36 52 61 90 26 39 68 97 94
130 57 71 250 261 300 295 19 13 37 27 40 30 3 4 47 35 99 70 101 67 235 135
311 156 25 7 59 17 75 23 118 42 167 57 300 90 156 39 213 50 380 75 194 29
324 36 643 36 204 0 322 4 322 10 0 5 -10 12 -22 14 -166 32 -504 46 -808 35z"/>
<path d="M5550 5234 c-321 -17 -625 -100 -744 -205 -108 -95 -116 -240 -16
-297 68 -40 152 -36 245 10 91 46 145 75 228 127 151 93 352 166 557 202 168
30 326 49 410 49 80 0 269 -20 425 -46 37 -6 38 -5 20 9 -51 37 -323 106 -520
132 -109 14 -479 26 -605 19z"/>
<path d="M3039 2904 c-41 -44 -168 -122 -233 -144 -44 -14 -106 -23 -202 -29
-146 -8 -174 -17 -193 -58 -22 -48 -14 -86 28 -127 88 -86 213 -69 371 50 119
90 179 160 242 282 29 57 25 66 -13 26z"/>
</g>
</svg>
